<svg xmlns="http://www.w3.org/2000/svg" width="1080" height="1080" viewBox="0 0 1080 1080" version="1.1"><path d="M 512.500 272.140 C 450.401 277.510, 390.592 305.379, 346.587 349.451 C 302.512 393.594, 275.907 448.630, 268.978 510 C 267.234 525.453, 267.718 560.289, 269.910 577 C 276.267 625.458, 294.263 668.665, 323.783 706.346 C 362.108 755.264, 416.569 789.706, 478 803.875 C 507.908 810.774, 551.432 812.260, 582.257 807.436 C 604.259 803.993, 631.995 795.840, 652.686 786.734 C 686.092 772.032, 719.798 747.628, 743.715 720.826 C 783.228 676.549, 805.654 624.912, 810.958 566 C 816.425 505.276, 802.470 447, 770.147 395.572 C 748.465 361.075, 712.316 326.718, 676.295 306.371 C 653.413 293.446, 634.432 285.876, 608 279.131 C 578.965 271.723, 545.583 269.279, 512.500 272.140 M 517.500 300.620 C 496.155 302.832, 472.787 308.071, 455.357 314.553 C 429.326 324.233, 400.109 341.355, 379.646 358.921 C 344.178 389.368, 316.574 433.336, 305.201 477.500 C 293.685 522.212, 293.631 559.444, 305.015 603.500 C 310.570 624.996, 319.962 647.180, 331.747 666.640 C 344.184 687.178, 365.979 712.088, 384.416 726.839 C 412.192 749.061, 446.429 765.867, 480.500 774.006 C 514.737 782.185, 551.586 783.196, 585.993 776.901 C 610.243 772.465, 627.432 766.739, 650.462 755.428 C 686.933 737.514, 716.228 712.280, 741.289 677.193 C 762.136 648.006, 775.242 615.237, 781.630 576.327 C 784.112 561.211, 784.129 521.818, 781.661 507.500 C 772.234 452.822, 750.244 408.586, 714.540 372.478 C 677.510 335.028, 631.381 311.339, 579 302.873 C 566.922 300.921, 528.264 299.504, 517.500 300.620 M 532.542 370.631 C 529.824 372.078, 518.803 378.666, 508.050 385.271 C 497.298 391.876, 482.650 400.761, 475.500 405.014 C 468.350 409.267, 451.925 419.091, 439 426.846 C 387.481 457.755, 385.633 459.043, 381.882 466.661 L 379.500 471.500 379.227 551.151 C 378.954 630.720, 378.956 630.808, 381.120 636.592 C 382.536 640.377, 384.882 643.960, 387.893 646.941 C 392.055 651.059, 423.714 671.035, 462.500 694.015 C 500.020 716.245, 513.451 724.252, 522.884 730.014 C 537.136 738.720, 540.124 738.967, 552.996 732.502 C 561.091 728.437, 599.186 705.911, 673.500 661.249 C 683.950 654.969, 693.508 648.631, 694.739 647.165 C 695.971 645.699, 697.724 642.025, 698.636 639 C 700.115 634.091, 700.305 624.956, 700.397 554 L 700.500 474.500 697.700 468.797 C 694.328 461.932, 688.071 456.085, 676.221 448.727 C 662.331 440.103, 623.042 416.164, 590.500 396.499 C 574 386.528, 558.202 376.715, 555.392 374.693 C 545.243 367.388, 540.289 366.507, 532.542 370.631 M 521 411.910 C 493.334 428.950, 436.093 463.381, 429.500 466.949 C 426.200 468.735, 420.308 472.260, 416.407 474.782 L 409.313 479.368 408.657 507.847 C 408.296 523.510, 408 552.172, 408 571.540 C 408 602.636, 408.188 606.911, 409.604 608.086 C 410.948 609.202, 411.636 609.160, 413.854 607.828 C 415.309 606.954, 421.225 603.430, 427 599.997 C 451.958 585.160, 465.287 577.155, 477 569.966 C 500.375 555.619, 523.482 542.150, 530 539.071 C 541.055 533.850, 547.100 535.243, 566.610 547.510 C 572.599 551.275, 582.900 557.586, 589.500 561.533 C 596.100 565.480, 608.250 572.894, 616.500 578.009 C 650.541 599.112, 669.777 610.256, 670.933 609.541 C 672.502 608.571, 672.301 483.945, 670.727 481.928 C 668.807 479.469, 656.351 470.839, 647 465.490 C 642.325 462.816, 633.325 457.401, 627 453.457 C 620.675 449.513, 608.750 442.096, 600.500 436.976 C 592.250 431.855, 578.975 423.527, 571 418.470 C 557.198 409.717, 544.849 402.926, 540.500 401.697 C 539.093 401.300, 533.309 404.329, 521 411.910 M 533.500 571.291 C 525.997 575.261, 496.379 592.825, 471.500 608.059 C 465.450 611.764, 455.325 617.600, 449 621.029 C 432.331 630.065, 424 634.988, 424 635.803 C 424 636.948, 474.820 667.802, 503.387 684 C 508.721 687.025, 518.804 693.203, 525.793 697.729 C 532.782 702.254, 539.188 705.967, 540.029 705.979 C 541.464 705.999, 570.126 689.206, 606.500 667.035 C 615.300 661.671, 630.346 652.655, 639.935 647 C 657.129 636.860, 657.340 636.694, 655.221 634.978 C 653.005 633.183, 640.894 625.966, 626 617.564 C 621.325 614.927, 608.604 607.309, 597.731 600.635 C 565.425 580.804, 542.533 567.001, 542 567.031 C 541.725 567.046, 537.900 568.963, 533.500 571.291" stroke="none" fill="#eae8dc" fill-rule="evenodd"/><path d="M 0 540.001 L 0 1080.002 540.250 1079.751 L 1080.500 1079.500 1080.751 539.750 L 1081.002 -0 540.501 -0 L 0 0 0 540.001 M 0.496 540.500 C 0.496 837.500, 0.610 958.851, 0.750 810.168 C 0.890 661.485, 0.890 418.485, 0.750 270.168 C 0.610 121.851, 0.496 243.500, 0.496 540.500 M 512.500 272.140 C 450.401 277.510, 390.592 305.379, 346.587 349.451 C 302.512 393.594, 275.907 448.630, 268.978 510 C 267.234 525.453, 267.718 560.289, 269.910 577 C 276.267 625.458, 294.263 668.665, 323.783 706.346 C 362.108 755.264, 416.569 789.706, 478 803.875 C 507.908 810.774, 551.432 812.260, 582.257 807.436 C 604.259 803.993, 631.995 795.840, 652.686 786.734 C 686.092 772.032, 719.798 747.628, 743.715 720.826 C 783.228 676.549, 805.654 624.912, 810.958 566 C 816.425 505.276, 802.470 447, 770.147 395.572 C 748.465 361.075, 712.316 326.718, 676.295 306.371 C 653.413 293.446, 634.432 285.876, 608 279.131 C 578.965 271.723, 545.583 269.279, 512.500 272.140 M 517.500 300.620 C 496.155 302.832, 472.787 308.071, 455.357 314.553 C 429.326 324.233, 400.109 341.355, 379.646 358.921 C 344.178 389.368, 316.574 433.336, 305.201 477.500 C 293.685 522.212, 293.631 559.444, 305.015 603.500 C 310.570 624.996, 319.962 647.180, 331.747 666.640 C 344.184 687.178, 365.979 712.088, 384.416 726.839 C 412.192 749.061, 446.429 765.867, 480.500 774.006 C 514.737 782.185, 551.586 783.196, 585.993 776.901 C 610.243 772.465, 627.432 766.739, 650.462 755.428 C 686.933 737.514, 716.228 712.280, 741.289 677.193 C 762.136 648.006, 775.242 615.237, 781.630 576.327 C 784.112 561.211, 784.129 521.818, 781.661 507.500 C 772.234 452.822, 750.244 408.586, 714.540 372.478 C 677.510 335.028, 631.381 311.339, 579 302.873 C 566.922 300.921, 528.264 299.504, 517.500 300.620 M 532.542 370.631 C 529.824 372.078, 518.803 378.666, 508.050 385.271 C 497.298 391.876, 482.650 400.761, 475.500 405.014 C 468.350 409.267, 451.925 419.091, 439 426.846 C 387.481 457.755, 385.633 459.043, 381.882 466.661 L 379.500 471.500 379.227 551.151 C 378.954 630.720, 378.956 630.808, 381.120 636.592 C 382.536 640.377, 384.882 643.960, 387.893 646.941 C 392.055 651.059, 423.714 671.035, 462.500 694.015 C 500.020 716.245, 513.451 724.252, 522.884 730.014 C 537.136 738.720, 540.124 738.967, 552.996 732.502 C 561.091 728.437, 599.186 705.911, 673.500 661.249 C 683.950 654.969, 693.508 648.631, 694.739 647.165 C 695.971 645.699, 697.724 642.025, 698.636 639 C 700.115 634.091, 700.305 624.956, 700.397 554 L 700.500 474.500 697.700 468.797 C 694.328 461.932, 688.071 456.085, 676.221 448.727 C 662.331 440.103, 623.042 416.164, 590.500 396.499 C 574 386.528, 558.202 376.715, 555.392 374.693 C 545.243 367.388, 540.289 366.507, 532.542 370.631 M 521 411.910 C 493.334 428.950, 436.093 463.381, 429.500 466.949 C 426.200 468.735, 420.308 472.260, 416.407 474.782 L 409.313 479.368 408.657 507.847 C 408.296 523.510, 408 552.172, 408 571.540 C 408 602.636, 408.188 606.911, 409.604 608.086 C 410.948 609.202, 411.636 609.160, 413.854 607.828 C 415.309 606.954, 421.225 603.430, 427 599.997 C 451.958 585.160, 465.287 577.155, 477 569.966 C 500.375 555.619, 523.482 542.150, 530 539.071 C 541.055 533.850, 547.100 535.243, 566.610 547.510 C 572.599 551.275, 582.900 557.586, 589.500 561.533 C 596.100 565.480, 608.250 572.894, 616.500 578.009 C 650.541 599.112, 669.777 610.256, 670.933 609.541 C 672.502 608.571, 672.301 483.945, 670.727 481.928 C 668.807 479.469, 656.351 470.839, 647 465.490 C 642.325 462.816, 633.325 457.401, 627 453.457 C 620.675 449.513, 608.750 442.096, 600.500 436.976 C 592.250 431.855, 578.975 423.527, 571 418.470 C 557.198 409.717, 544.849 402.926, 540.500 401.697 C 539.093 401.300, 533.309 404.329, 521 411.910 M 533.500 571.291 C 525.997 575.261, 496.379 592.825, 471.500 608.059 C 465.450 611.764, 455.325 617.600, 449 621.029 C 432.331 630.065, 424 634.988, 424 635.803 C 424 636.948, 474.820 667.802, 503.387 684 C 508.721 687.025, 518.804 693.203, 525.793 697.729 C 532.782 702.254, 539.188 705.967, 540.029 705.979 C 541.464 705.999, 570.126 689.206, 606.500 667.035 C 615.300 661.671, 630.346 652.655, 639.935 647 C 657.129 636.860, 657.340 636.694, 655.221 634.978 C 653.005 633.183, 640.894 625.966, 626 617.564 C 621.325 614.927, 608.604 607.309, 597.731 600.635 C 565.425 580.804, 542.533 567.001, 542 567.031 C 541.725 567.046, 537.900 568.963, 533.500 571.291" stroke="none" fill="#1c242c" fill-rule="evenodd"/></svg>